<svg xmlns="http://www.w3.org/2000/svg" xmlns:xlink="http://www.w3.org/1999/xlink" viewBox="0 0 4680 3120"><defs><style>.cls-1{fill:none;}.cls-15,.cls-2,.cls-46{fill:#fff;}.cls-2{opacity:0;}.cls-3{fill:#489ca2;}.cls-4{fill:#d4edf4;}.cls-5{fill:#84c8bb;}.cls-6{fill:#a6ddef;}.cls-7{fill:#118280;}.cls-8{fill:#4db19d;}.cls-9{fill:#056b68;}.cls-10,.cls-45{fill:#f6cc5d;}.cls-11{fill:#f79421;}.cls-12{fill:#5f9099;}.cls-13{fill:#0e516d;}.cls-14{fill:#153e56;}.cls-16{fill:#3b62ab;}.cls-17{fill:#273a76;}.cls-18{fill:#523045;}.cls-19{fill:#866e70;}.cls-20{fill:#6c7798;}.cls-21{fill:#3f2435;}.cls-22,.cls-56{fill:#e75726;}.cls-23{fill:#f5f6f6;}.cls-24{opacity:0.3;}.cls-25{fill:#1d2c64;}.cls-26{fill:#192e35;}.cls-27{fill:#45a391;}.cls-28{fill:#153f67;}.cls-29,.cls-48{fill:#c3194b;}.cls-30{fill:#e1e1e1;}.cls-31{fill:#06022f;}.cls-32{fill:#fbc5a9;}.cls-33{fill:#ec2e66;}.cls-34{fill:#38445e;}.cls-35,.cls-50{fill:#f4c4bc;}.cls-36{fill:#fcd9c6;}.cls-37{fill:#2275b9;}.cls-38,.cls-64{fill:#f7a18a;}.cls-39{fill:#f26e51;}.cls-40,.cls-55{fill:#5a1e14;}.cls-41{fill:#f27b76;}.cls-42,.cls-47{fill:#f5917e;}.cls-43,.cls-57{fill:#84201a;}.cls-43,.cls-44,.cls-45,.cls-46,.cls-47,.cls-48,.cls-49,.cls-50,.cls-51,.cls-55,.cls-56,.cls-64{fill-rule:evenodd;}.cls-44,.cls-63{fill:#f3b9b6;}.cls-49{fill:#970a37;}.cls-51{fill:#f7d3cc;}.cls-52{clip-path:url(#clip-path);}.cls-53{fill:#d55454;}.cls-54{fill:#f27c7b;}.cls-58{fill:#5b1e13;}.cls-59{fill:#091436;}.cls-60{fill:#19234d;}.cls-61{opacity:0.5;}.cls-62{fill:#f3888a;}</style><clipPath id="clip-path"><path class="cls-1" d="M1786.51,1154.2s-47.11-10.33-137.58,27.68-119.44,61.45-119.44,61.45,15.1,51.92,40.79,83.94c27.26,34,79.53,57.85,113.8,56,47.11-2.61,87.08-22.51,110.66-83.83C1811.86,1246.43,1813.32,1204.07,1786.51,1154.2Z"/></clipPath></defs><title>04</title><g id="_04" data-name="04"><rect id="_04-2" data-name="04" class="cls-2" width="4680" height="3120"/><ellipse class="cls-3" cx="914.81" cy="2453.13" rx="289.27" ry="56.31"/><ellipse class="cls-3" cx="3435.96" cy="2388.38" rx="280.76" ry="70.38"/><ellipse class="cls-3" cx="2119.83" cy="2669.35" rx="1347.33" ry="90.65"/><path class="cls-4" d="M2628.08,361.74c-373.85,28.09-740.27,363.62-1105.55,399.59s-911.19,327.3-789.32,901.16,461.72,635.38,1010.47,665.88,1329.54,305.37,1646.6-66.26c0,0,413.07-447.6,294.25-1031.05S3001.92,333.64,2628.08,361.74Z"/><path class="cls-5" d="M3963.31,1526.64l.06-.12-1-.17h0c-30.62-9.18-147.48-18.09-185.09,46.25-26.21,44.85.81,75.1,10.58,117.35,10.59,45.81-7.22,80-8.76,85.37l1.92-1.18c72.47-55,200.92-20.82,256.11-85.59C4084.15,1633.39,4027.32,1546.43,3963.31,1526.64Z"/><path class="cls-6" d="M3956,1512.6c-30.62-9.18-147.49-18.09-185.09,46.25-26.21,44.85.81,75.1,10.58,117.35,11.3,48.89-3,96.36-3,96.36,71.65-59.83,198.92-47.76,244.84-104.1S4020.45,1531.9,3956,1512.6Z"/><path class="cls-4" d="M3777.56,1772.23l1.76.66c97.5-148.58,119.46-265.8,119.68-267l-2.27.56C3896.52,1507.64,3874.67,1624.25,3777.56,1772.23Z"/><path class="cls-4" d="M3824.92,1517.68c.06,1.44,5.78,145.7-47.48,254.76l2,.24c53.58-109.74,47.84-254.61,47.77-256.06Z"/><path class="cls-4" d="M3778,1771.79l1,1.55c141.83-120.87,227-229.25,227.88-230.33l-1.56-.93C4004.41,1543.15,3919.44,1651.21,3778,1771.79Z"/><path class="cls-4" d="M3862.56,1716.53c-36.63,21.3-68.26,39.69-84.69,55.33l1.14,1.41c16.07-15.32,47.52-33.61,83.94-54.77,57.23-33.28,128.45-74.69,175.11-125.11l-1.32-1.21C3990.5,1642.14,3919.56,1683.39,3862.56,1716.53Z"/><path class="cls-4" d="M3627.6,1954.91l1.65,2.57c167.86-183.75,331.12-439.27,332-441l-1.93-.35C3958.43,1517.86,3795.08,1771.58,3627.6,1954.91Z"/><path class="cls-7" d="M3623.81,1505.49h0l-1.27-.71s-.05.09-.07.14c-94.92-41.49-246.1-29.13-259.55,48.64-15.8,91.32,152.23,176.22,167.32,275.75l.72,2.45c4.76-5,25.64-43.46,92.09-65.47,61.29-20.31,127.48-17.66,151.78-70.6C3809.68,1619.75,3668.86,1525.54,3623.81,1505.49Z"/><path class="cls-8" d="M3647.36,1501.67c-94.85-42.21-244.85-29.58-260.91,48.07s140.11,178.65,148.55,280.74c0,0,40.68-44.52,111.58-68,61.3-20.31,127.48-17.66,151.79-70.59C3833.24,1615.93,3692.42,1521.71,3647.36,1501.67Z"/><path class="cls-5" d="M3533.63,1830l2.74,1.06c68.36-183.78,183.14-281.69,184.29-282.66l-1.85-2.32C3717.65,1547,3602.27,1645.43,3533.63,1830Z"/><path class="cls-5" d="M3533.74,1829.7l2.51,1.55c70.79-119.73,249.26-212.76,251.05-213.69l-1.3-2.68C3784.2,1615.8,3605,1709.22,3533.74,1829.7Z"/><path class="cls-5" d="M3554.47,1478.72c-.35,1.46-34.72,148.13-20.93,351.87l2.92-.23c-13.75-203.24,20.51-349.49,20.86-350.94Z"/><path class="cls-5" d="M3462.46,1486.41l-2.92-.31c-8.17,74.26,21.77,163.48,45.82,235.17,15.31,45.61,28.53,85,28.17,109.2l2.94,0c.36-24.72-12.94-64.34-28.33-110.22C3484.18,1648.87,3454.36,1560,3462.46,1486.41Z"/><path class="cls-5" d="M3508.34,1970.91l2.92.34c32.14-268.15,136.34-466.89,137.39-468.87l-2.57-1.42C3645,1502.94,3540.57,1702.16,3508.34,1970.91Z"/><path class="cls-9" d="M3294.61,1257.11c-1-.34-1.88-.63-2.83-1a2.34,2.34,0,0,0,0-.26l-1.55-.26c-112.68-38.57-180.78-3.38-176.3,74.4,5.57,96.74,185.11,159.59,215.9,229.73l1.11.12c20.91-70,89.84-89.77,92.72-157.45C3426.11,1345.83,3375.84,1285.72,3294.61,1257.11Z"/><path class="cls-7" d="M3313,1247.85c-115.43-40.66-179.74-18.57-175.2,60.21,5.68,98.65,169.73,181.57,195.91,252.63,18.7-73.3,105.45-98.47,108.38-167.52C3444.49,1336.58,3394.22,1276.47,3313,1247.85Z"/><path class="cls-8" d="M3348.56,1401.26c-10.47,61-21.29,124-16.32,159.63l2.91-.4c-4.92-35.21,5.87-98,16.3-158.74,7.7-44.81,15.66-91.13,17.54-127.17l-2.94-.15C3364.18,1310.29,3356.24,1356.54,3348.56,1401.26Z"/><path class="cls-8" d="M3370.66,1462.56c-21.84,40.52-40.7,75.52-38.42,98.28l2.91-.29c-2.18-21.88,17.39-58.19,38.1-96.62,24-44.57,51.26-95.09,51.26-135.11h-2.94C3421.57,1368.11,3394.53,1418.29,3370.66,1462.56Z"/><path class="cls-8" d="M3239.61,1229.94l-2.91-.38c-12.54,94.15,41.66,210.63,74,280.22,10.89,23.42,19.49,41.92,21.53,51.22l2.86-.61c-2.1-9.62-10.33-27.32-21.73-51.82C3281.15,1439.26,3227.17,1323.26,3239.61,1229.94Z"/><path class="cls-8" d="M3162.12,1243.79h-2.94c0,41.23,42.16,105.22,86.79,173,31.51,47.83,64.1,97.28,86.4,144.55l2.65-1.24c-22.39-47.45-55-97-86.59-144.9C3204,1347.79,3162.12,1284.16,3162.12,1243.79Z"/><path class="cls-8" d="M3310.21,1246.63l-2.9-.47c-12.23,73.22-11.27,273.25,69.73,424.22,82.42,153.63,133.51,264.9,133.51,344.86h2.93c0-80.56-51.21-192.2-133.85-346.22C3299,1518.7,3298,1319.54,3310.21,1246.63Z"/><path class="cls-8" d="M3431.73,1775.08c-10.41-53.5-109.68-65-164.22-53.48h0l-1.45.08s0,.12,0,.26c-81.09,17.83-116.17,88.75-100.72,135.82,22,67,174,29.18,210.72,51C3368.94,1864,3441.91,1827.38,3431.73,1775.08Z"/><path class="cls-5" d="M3443.24,1760c-10.41-53.5-109.68-65-164.23-53.49-82.05,17.28-123.44,91.07-102.16,136.16,29.63,62.8,177.35,40.37,206,67.09C3371.43,1864.18,3453.65,1813.54,3443.24,1760Z"/><path class="cls-6" d="M3344.84,1703.68l-2.88-.51c-7.74,42.71,11.32,172.3,39.73,207.54l2.29-1.82C3356,1874.12,3337.19,1746,3344.84,1703.68Z"/><path class="cls-6" d="M3386.5,1797.86c-9.14,43.45-17.77,84.49-5,112.54l2.67-1.2c-12.37-27.19-3.84-67.77,5.2-110.74,5.76-27.41,11.72-55.76,12.52-82.11l-2.94-.09C3398.17,1742.36,3392.24,1770.58,3386.5,1797.86Z"/><path class="cls-6" d="M3220.91,1732.63l-2.85.68c12.74,53,62.43,93,110.49,131.81,19.39,15.63,37.7,30.41,53.25,45.71l2.07-2.07c-15.65-15.4-34-30.22-53.47-45.9C3282.72,1824.4,3233.42,1784.63,3220.91,1732.63Z"/><path class="cls-6" d="M3179.48,1784.32l-2.84.73c12.46,47.38,83.45,74,140.49,95.32,29.55,11.06,55.06,20.61,64.65,30.44l2.11-2c-10-10.31-35.85-20-65.72-31.15C3261.76,1856.53,3191.55,1830.24,3179.48,1784.32Z"/><path class="cls-6" d="M3346.69,1860.55c-61.41-82.32-66.17-153.37-66.21-154.08l-2.93.17c0,.71,4.81,72.57,66.78,155.64,23.8,31.89,43.41,56.09,60.71,77.43,27.11,33.44,46.71,57.6,60.8,85.86l2.63-1.29c-14.24-28.54-33.91-52.81-61.14-86.4C3390,1916.56,3370.45,1892.4,3346.69,1860.55Z"/><path class="cls-10" d="M3320.89,2041.37c0,288.17,93.45,331.45,93.45,331.45h205.74s93.44-43.28,93.44-331.45V1930H3320.89Z"/><path class="cls-11" d="M3513.49,2291.43c-130.69-16.43-157.16-359.67-157.16-359.67l-27.56-1.77h-7.88v111.38c0,288.17,93.45,331.45,93.45,331.45h205.74s35.18-16.41,62.37-95.63C3662.72,2286.59,3611.25,2303.71,3513.49,2291.43Z"/><polygon class="cls-12" points="722.21 1669.13 668.29 1740.99 1244.49 1740.99 1187.61 1668.03 722.21 1669.13"/><rect class="cls-13" x="668.29" y="1741" width="579.16" height="566.15"/><rect class="cls-8" x="693.4" y="1767.03" width="517.47" height="146.3"/><rect class="cls-7" x="696.73" y="1945.23" width="517.47" height="147.4"/><rect class="cls-8" x="698.94" y="2130.04" width="515.26" height="144.1"/><ellipse class="cls-13" cx="959.9" cy="1805.53" rx="22.72" ry="22.55"/><ellipse class="cls-13" cx="962.11" cy="1987.58" rx="22.72" ry="22.55"/><rect class="cls-14" x="695.62" y="2305.68" width="188.37" height="34.47"/><polygon class="cls-14" points="679.37 2458.95 712.61 2458.95 753.98 2338.68 698.57 2337.21 679.37 2458.95"/><path class="cls-14" d="M3061.62,647.85c-103.74-32.18-193.69,104.2-197.41,109.59l24.69,6.07c.81-1.15,80.57-114.32,164.11-88.35,82.69,25.64,78.61,140,78.55,141.92L3143.38,2187l28.81-.22L3160.34,817.64C3160.62,812,3165.57,680.11,3061.62,647.85Z"/><path class="cls-11" d="M2817.6,742.9c-82.62,0-149.6,66.49-149.6,148.51a148,148,0,0,0,3,29.9c44.69,4.4,170.32,23,230,93.33a148,148,0,0,0,66.13-123.23C2967.18,809.39,2900.21,742.9,2817.6,742.9Z"/><ellipse class="cls-10" cx="2854.95" cy="810.17" rx="62.77" ry="52.68" transform="translate(982.57 3112.63) rotate(-66.72)"/><path class="cls-15" d="M2669.29,912.11c67.22,148.14,231.76,102.53,231.76,102.53C2856,933.24,2669.29,912.11,2669.29,912.11Z"/><rect class="cls-13" x="1229.09" y="2640.62" width="88.65" height="70.4"/><rect class="cls-13" x="2898.19" y="2648.78" width="88.65" height="70.4"/><path class="cls-13" d="M2865.89,1215.92H1310.34a89.48,89.48,0,0,0-89.49,89.48v451.73h1741.9V1312.78A96.85,96.85,0,0,0,2865.89,1215.92Z"/><path class="cls-5" d="M2962.75,1721.93,1212,1735.13s-301.39,365.21-323.56,528L884,2474.35s2442.21,39.6,2522,4.4c0,0,17.73-140.81-26.59-268.41S2962.75,1721.93,2962.75,1721.93Z"/><path class="cls-3" d="M3286.31,2236.74s-2220.59-8.8-2273.78-8.8-124.11,35.2-124.11,35.2L884,2474.35l2522,4.4c26.6-4.4-4.43-193.61-4.43-193.61C3397.12,2258.74,3286.31,2236.74,3286.31,2236.74Z"/><rect class="cls-4" x="883.99" y="2474.35" width="2524.95" height="189.93"/><path class="cls-10" d="M2970.14,1723.39,1212,1735.13s-186.89,257.4-196.5,277.21l-14.77,74.8,26.59,1.46,48.76-88h22.16s-39.89,86.54-35.46,86.54,35.46-1.47,35.46-1.47l36.94-80.67,48.75-2.93-25.11,80.67,29.54,1.46,28.08-83.6s45.8-2.93,45.8,2.94-16.25,79.2-16.25,79.2h31l19.21-79.2h35.46l-5.91,71.86s38.41,7.34,38.41,1.47,5.91-71.87,5.91-71.87h47.28s-8.87,74.8-4.43,74.8h44.32l-10.34-76.26,50.23-1.47-11.82,74.8s41.37,2.93,41.37-2.93,3-68.94,3-68.94l34-2.93,1.47,70.4L1602,2071l4.43-64.53,36.94-1.47,8.86,67.47h41.37l-4.43-70.4s42.84-5.87,42.84-1.47-1.47,74.8-1.47,74.8l36.93-5.86v-70.4s45.8,1.46,45.8,5.86-5.91,66-5.91,66l34-1.46v-67.47l35.46-1.47,7.39,71.87s41.37,7.33,41.37,1.47-7.39-76.27-7.39-76.27l47.28,5.87,1.48,73.33,35.46-1.47-3-79.2,34,4.4s-4.43,68.94,0,68.94h44.33l-7.39-71.87h28.07l13.3,79.2s35.45,7.33,34,0-11.82-77.73-11.82-77.73h36.93l19.21,73.33,28.07-7.33v-66l38.42,4.4s-3,76.26,2.95,76.26,36.94-7.33,36.94-7.33l-5.91-74.8s31-2.94,31,1.47,0,66,7.39,70.4,41.37,10.26,41.37,4.4-19.21-73.34-19.21-73.34l59.1,1.47s2.95,79.2,7.39,79.2,36.93-1.47,34-5.87-5.91-70.4-5.91-70.4,36.93-5.86,36.93-1.46,7.39,71.86,7.39,71.86h39.89l-5.91-67.46,34-4.4,5.91,71.86,26.6-2.93,2.95-67.47,50.24,2.94,8.86,68.93s32.5,2.93,32.5-1.47-4.43-68.93-4.43-68.93,56.14-16.14,57.62-1.47,5.91,70.4,5.91,70.4h25.12l4.43-66s47.28-8.8,48.76-1.46,0,66,0,66l36.93,2.93L2849,2013.8s54.66-7.33,56.14,1.47,10.34,58.67,10.34,58.67l28.08-5.87-5.91-61.6s38.41-19.07,41.36,2.93,8.87,58.67,8.87,58.67l32.5-2.93-2.95-55.74s50.23,4.4,51.71,8.8,1.48,57.2,1.48,57.2h23.63s5.91-71.86,7.39-67.46,31,13.2,31,13.2l-1.48,60.13s36.94-4.4,36.94-10.27,4.43-61.6,4.43-61.6,22.16-5.86,28.07,5.87,11.82,52.8,11.82,52.8l60.58-7.33-294-322.68Z"/><path class="cls-16" d="M1815.53,1531.06a105.57,105.57,0,0,0-12.68-32.07,94.27,94.27,0,0,0-22.46-25.13c-9.26-7.32-20.32-13.61-33.79-19.24-5.81-2.43-12.09-4.7-19.78-7.14-1.88-.61-3.8-1.2-5.7-1.78l-.66-.19-.71-.2-5.54-1.69c-4.32-1.34-8.65-2.76-13-4.18a662.65,662.65,0,0,1-75-30.34,572,572,0,0,1-69.82-39.87l-.7-.4c-15.75-10.76-30.74-22.1-44.54-33.72l-4.78-4c-11.33-9.56-22.87-19.3-35.13-27.55-15.44-10.4-29.85-16.16-44-17.61-2.25-.22-4.52-.33-6.77-.33-1.58,0-3.14.06-4.72.15a69.37,69.37,0,0,0-12.79,2.18c-8.38,2.11-16.09,6.07-23.17,10-12.66,7-25.52,16.48-40.48,29.68a508.3,508.3,0,0,0-38.84,38.91c-17.73,19.53-35,40.9-50.22,59.75-5.87,7.25-11.73,14.49-17.65,21.69l-2.64,3.18-1,1.22c-1.26,1.51-2.51,3-3.75,4.56-2.9,3.72-5.57,7.42-7.91,11a143.3,143.3,0,0,0-11.77,21.42,123.76,123.76,0,0,0-10.37,43.47,141.62,141.62,0,0,0,4.78,43.54c3.5,13.48,9.1,27.22,17.12,42a268,268,0,0,0,26.49,39.53,375.77,375.77,0,0,0,33.21,36.22,444.42,444.42,0,0,0,74.62,57.69c20.32,12.57,42.94,23.84,69.15,34.45a571.33,571.33,0,0,0,82.81,26.34,456,456,0,0,0,88.66,12.3q5.88.19,11.79.2c26,0,50.49-3.12,72.77-9.27a188,188,0,0,0,46.77-20,157,157,0,0,0,39.24-33.75,4.61,4.61,0,0,0-.41-6.28l1.69-2.28,1.71-2.47,3.74-5.2.82-1.14q1.89-2.62,3.75-5.29c2.65-3.84,5.29-7.94,8.06-12.51a237.06,237.06,0,0,0,23-50.21,292.18,292.18,0,0,0,11.94-54.84c1.06-8.63,1.83-17.6,2.36-27.41.48-8.62.67-16.27.59-23.39A191,191,0,0,0,1815.53,1531.06Z"/><path class="cls-17" d="M1508.19,1351.69q-6.29-15.17-13.23-30c-7.66-6.32-15.54-12.51-23.78-18.05-15.44-10.39-29.82-16.14-44-17.59-2.25-.22-4.52-.33-6.77-.33-1.58,0-3.13.07-4.71.16A68.8,68.8,0,0,0,1403,1288a71,71,0,0,0-10.06,3.45c21.69,38.54,39,79.75,53.07,121.8,24,71.53,39,146.08,47.5,221.17,6.62,58.73,9.25,118.12,6.44,177.22,1.15.29,2.29.56,3.44.82a465.21,465.21,0,0,0,76.74,11.68c-3.53-85.38-6.3-170.86-17.22-255.65C1552.91,1494.26,1536.19,1421,1508.19,1351.69Z"/><path class="cls-18" d="M1507.49,1350c-.23-.55-.45-1.09-.67-1.64.22.55.44,1.11.67,1.64Z"/><path class="cls-17" d="M1706.77,1654.16c-.07-.57-.15-1.16-.23-1.74,0,.29.07.59.11.89Z"/><path class="cls-17" d="M1706.45,1651.74c0,.08,0,.15,0,.22l.06.41C1706.51,1652.16,1706.48,1652,1706.45,1651.74Z"/><path class="cls-17" d="M1706.54,1652.42v-.05l-.06-.41c0-.15,0-.29,0-.44l-.09-.67c0-.1,0-.2,0-.3a1069.94,1069.94,0,0,0-23.61-121.66c-9.41-36.61-20.65-72.8-34.77-107.78l-1-2.45q-10.58-4.61-20.74-9.49a568.23,568.23,0,0,1-69.83-39.88l-.7-.4.05,0q-7.73-5.23-15.21-10.71,5.36,14.07,10.1,28.34c47.11,141.1,51.06,290.6,57.23,438.42,24.48-.32,47.58-3.4,68.68-9.23a190.13,190.13,0,0,0,36.61-14.29c3-49.36-.22-99.17-6.43-148.09C1706.61,1653,1706.57,1652.71,1706.54,1652.42Z"/><path class="cls-18" d="M1815.41,1531.07a106.63,106.63,0,0,0-12.64-32.06,94.22,94.22,0,0,0-22.47-25.09c-9.25-7.31-20.3-13.6-33.75-19.23-5.82-2.42-12.09-4.69-19.77-7.13-2.34-.76-4.72-1.47-7.07-2.18l-5.54-1.69c-4.33-1.33-8.65-2.76-13-4.18q-9.68-3.26-19.1-6.73,8.19,22.18,15.06,44.85a1048.71,1048.71,0,0,1,41.11,211.63,797.44,797.44,0,0,1,3.28,93.5,157.72,157.72,0,0,0,20.9-20.77,4.48,4.48,0,0,0-.41-6.11l1.69-2.43,1.71-2.46c1.23-1.76,2.48-3.49,3.74-5.23,1.53-2.13,3.07-4.24,4.56-6.4,2.62-3.8,5.26-7.89,8.09-12.51a239.28,239.28,0,0,0,23-50.19,293,293,0,0,0,11.92-54.82c1-8.42,1.81-17.4,2.35-27.4.48-8.52.67-16.16.59-23.39A190.1,190.1,0,0,0,1815.41,1531.07Z"/><path class="cls-18" d="M1706.29,1650.55v.08a2,2,0,0,1,0-.25C1706.28,1650.44,1706.29,1650.5,1706.29,1650.55Z"/><path class="cls-18" d="M1706.33,1650.85c0,.12,0,.25.05.38,0-.2-.05-.4-.08-.6Z"/><path class="cls-18" d="M1563.23,1571.21c-.07-.46-.13-.91-.2-1.37.07.46.13.93.2,1.37Z"/><path class="cls-17" d="M1402.44,1375.26A637.07,637.07,0,0,0,1368.5,1305a268.87,268.87,0,0,0-29.15,22.77c-9.45,8.38-18.88,17.6-29.15,28.43q8.85,16.56,16.39,33.8c29.5,67.35,47.67,139.62,58.13,212.54,8.2,57.11,12.48,115,10.62,172.74q12,5.6,25.2,10.91c17,6.86,34.41,12.94,52,18.15,2.53-62.71-1-125.72-9-187.88C1452.59,1534,1433.54,1452.19,1402.44,1375.26Zm55.06,415.3,0,0,0,0a.92.92,0,0,1-.28-.09l-.07,0h0l-.07,0-.15,0-.41-.22c1.28.44,2.53.86,3.81,1.28C1459.36,1791.19,1458.43,1790.87,1457.5,1790.56Z"/><path class="cls-17" d="M1359.57,1621.14l-.06-.45,0-.27a3.47,3.47,0,0,1-.06-.45c-9.42-69.33-25.28-138.29-51.39-203.07q-8.16-19.74-17.76-38.76c-13.78,15.82-27.07,32.24-40,48.23l-.52.65A952.57,952.57,0,0,1,1289.38,1577a1072,1072,0,0,1,15.53,141.84,455.46,455.46,0,0,0,46.48,32.9q8.05,5,16.59,9.68a977.47,977.47,0,0,0-8.29-139.25Z"/><path class="cls-17" d="M1359.61,1621.37c0,.25.06.52.08.76s.07.44.1.66C1359.72,1622.32,1359.67,1621.85,1359.61,1621.37Z"/><path class="cls-18" d="M1359.42,1620c0,.11,0,.21,0,.32,0-.19,0-.39-.07-.58Z"/><path class="cls-18" d="M1359.48,1620.42l0,.15c0-.09,0-.18,0-.28S1359.47,1620.38,1359.48,1620.42Z"/><path class="cls-18" d="M1359.51,1620.69c0,.11,0,.22,0,.32,0-.14,0-.29,0-.44C1359.5,1620.61,1359.51,1620.65,1359.51,1620.69Z"/><path class="cls-18" d="M1359.57,1621.14a1.57,1.57,0,0,0,0,.23l-.06-.36A.69.69,0,0,1,1359.57,1621.14Z"/><path class="cls-17" d="M1269.55,1628.45a979.84,979.84,0,0,0-40.43-176.15c-1.29,1.57-2.59,3.13-3.86,4.73-2.7,3.45-5.36,7.13-7.92,11a144.44,144.44,0,0,0-11.76,21.4,123.84,123.84,0,0,0-10.34,43.44,141.86,141.86,0,0,0,4.76,43.5c3.55,13.51,9.13,27.25,17.11,42a267.81,267.81,0,0,0,26.49,39.5,372.17,372.17,0,0,0,32.24,35.29q-2.11-31.92-6.16-63.67C1269.64,1629.12,1269.59,1628.78,1269.55,1628.45Z"/><path class="cls-17" d="M1269.44,1627.54c0,.31.07.6.11.91,0,.16,0,.31.07.47C1269.55,1628.45,1269.51,1628,1269.44,1627.54Z"/><path class="cls-17" d="M1269.94,1631.32c-.11-.8-.22-1.6-.32-2.4l.06.51C1269.77,1630.07,1269.85,1630.69,1269.94,1631.32Z"/><path class="cls-18" d="M1457.05,1790.44h0l-.07,0Z"/><path class="cls-18" d="M1439,1184.37l0,0s0-.07,0-.11A.14.14,0,0,1,1439,1184.37Z"/><path class="cls-18" d="M1462.1,1121.71c.18-.17.34-.35.5-.53l-.11.12Z"/><path class="cls-18" d="M1532.32,1280l.31.18-.31-.18Z"/><polygon class="cls-19" points="2142.52 1533.43 2142.52 1533.43 2142.52 1533.43 2142.52 1533.43"/><path class="cls-19" d="M2142.46,1533.51a.24.24,0,0,0,.06-.08l-.06.08Z"/><path class="cls-19" d="M2142.45,1533.53v0Z"/><path class="cls-20" d="M2055.44,1659l.11,0c-.09,0-.17.06-.24.1Z"/><path class="cls-20" d="M1675.09,1384.67l.1-.13a1.13,1.13,0,0,0-.1.13Z"/><path class="cls-19" d="M1706.5,1587.07l-.22.1.22-.1Z"/><path class="cls-21" d="M1715.44,1508.69A165.76,165.76,0,0,0,1700,1499a153.47,153.47,0,0,0-49.85-17.57,123.16,123.16,0,0,0-20.31-1.69,133.77,133.77,0,0,0-14.33.82,1.84,1.84,0,0,0-1.22.74,2,2,0,0,0-.43,1.48,2,2,0,0,0,1.94,1.7c3.67-.39,7.19-.6,10.77-.65a112.47,112.47,0,0,1,27.47,3.65,126.06,126.06,0,0,1,16.61,5.88,150.27,150.27,0,0,1,15.26,7.87c11.56,6.91,22.93,16,34.76,27.71,3.82,3.88,7.63,8,11.31,12.4a6.76,6.76,0,0,0,4.23,2.46c.26,0,.52,0,.81,0a6.46,6.46,0,0,0,4-1.44,6.94,6.94,0,0,0,2.4-4.73,6.14,6.14,0,0,0-1.35-4.57A147.75,147.75,0,0,0,1715.44,1508.69Z"/><path class="cls-16" d="M3084.65,1516.69a145,145,0,0,0-11.77-21.41c-2.35-3.57-5-7.27-7.92-11-1.23-1.53-2.49-3-3.74-4.56l-1-1.22-2.64-3.18q-8.88-10.8-17.64-21.69c-15.23-18.85-32.5-40.22-50.22-59.75a506.19,506.19,0,0,0-38.85-38.9c-15-13.2-27.82-22.63-40.47-29.68-7.09-4-14.8-7.92-23.18-10a67.72,67.72,0,0,0-12.79-2.18c-1.58-.09-3.14-.16-4.72-.16-2.25,0-4.52.11-6.77.33-14.19,1.45-28.59,7.21-44,17.62-12.26,8.25-23.79,18-35.12,27.54l-4.78,4c-13.81,11.62-28.8,23-44.55,33.72l-.69.4a571.53,571.53,0,0,1-69.83,39.87,661.9,661.9,0,0,1-75,30.34c-4.32,1.42-8.65,2.85-13,4.18l-5.54,1.69-.71.2-.65.2c-1.91.58-3.83,1.16-5.71,1.78-7.69,2.44-14,4.7-19.77,7.13-13.48,5.63-24.53,11.92-33.8,19.24a94.44,94.44,0,0,0-22.46,25.13,106,106,0,0,0-12.68,32.07,190.56,190.56,0,0,0-4.28,40c-.09,7.13.1,14.78.58,23.39.54,9.81,1.31,18.78,2.36,27.41a293.08,293.08,0,0,0,11.94,54.85,237.21,237.21,0,0,0,23,50.2c2.77,4.58,5.41,8.67,8.07,12.52q1.84,2.65,3.74,5.29l.82,1.13,3.74,5.2,1.71,2.47,1.7,2.28a4.62,4.62,0,0,0-.42,6.28,156.8,156.8,0,0,0,39.24,33.75,187.31,187.31,0,0,0,46.78,20c22.27,6.15,46.76,9.27,72.76,9.27,3.94,0,7.88-.07,11.79-.2a455.84,455.84,0,0,0,88.66-12.29,572.68,572.68,0,0,0,82.82-26.34c26.21-10.62,48.82-21.89,69.15-34.46a445.23,445.23,0,0,0,74.62-57.69,378,378,0,0,0,33.2-36.21,268.93,268.93,0,0,0,26.5-39.53c8-14.78,13.61-28.52,17.11-42a141.65,141.65,0,0,0,4.78-43.54A124,124,0,0,0,3084.65,1516.69Z"/><path class="cls-17" d="M2874.42,1313.2c-1.57-.09-3.13-.16-4.71-.16a66.72,66.72,0,0,0-6.77.34c-14.17,1.44-28.55,7.2-44,17.58-8.23,5.54-16.12,11.74-23.78,18q-6.95,14.85-13.22,30c-28,69.35-44.73,142.57-54.67,216.81-10.93,84.78-13.7,170.26-17.23,255.65a467.34,467.34,0,0,0,76.74-11.68c1.15-.27,2.29-.54,3.44-.83-2.81-59.1-.17-118.49,6.45-177.22,8.47-75.08,23.53-149.63,47.49-221.16,14.08-42.06,31.38-83.27,53.07-121.81a70.59,70.59,0,0,0-10.06-3.45A68.67,68.67,0,0,0,2874.42,1313.2Z"/><path class="cls-18" d="M2782.64,1377.32c.24-.55.45-1.08.67-1.64-.22.56-.43,1.11-.67,1.64Z"/><path class="cls-17" d="M2583.36,1681.51l.12-.86c0-.3.08-.6.11-.89C2583.52,1680.34,2583.44,1680.93,2583.36,1681.51Z"/><path class="cls-17" d="M2583.68,1679.08c0,.21,0,.42-.08.63l.06-.41A1.5,1.5,0,0,0,2583.68,1679.08Z"/><path class="cls-17" d="M2734.51,1396.24l-.69.4a568.27,568.27,0,0,1-69.84,39.87q-10.17,4.89-20.74,9.49c-.34.81-.68,1.63-1,2.45-14.12,35-25.37,71.17-34.78,107.78a1070.11,1070.11,0,0,0-23.61,121.67l0,.29-.09.67-.06.44-.06.41v0c0,.29-.07.59-.11.89-6.21,48.92-9.39,98.73-6.43,148.09a189.74,189.74,0,0,0,36.61,14.29c21.11,5.83,44.2,8.92,68.69,9.23,6.16-147.81,10.12-297.32,57.22-438.42q4.74-14.27,10.1-28.34-7.5,5.48-15.2,10.71Z"/><path class="cls-18" d="M2576,1471l-5.53,1.69c-2.36.71-4.74,1.42-7.07,2.18-7.68,2.45-14,4.71-19.77,7.13-13.45,5.63-24.5,11.92-33.76,19.23a94.1,94.1,0,0,0-22.47,25.1,106.4,106.4,0,0,0-12.63,32.05,189.46,189.46,0,0,0-4.28,40c-.09,7.22.1,14.87.58,23.38.54,10,1.32,19,2.36,27.41A293,293,0,0,0,2485.3,1704a239.55,239.55,0,0,0,23,50.19c2.84,4.62,5.48,8.71,8.09,12.51,1.5,2.16,3,4.27,4.57,6.41,1.25,1.73,2.51,3.46,3.74,5.22l1.71,2.47,1.68,2.42a4.48,4.48,0,0,0-.41,6.11,157.71,157.71,0,0,0,20.9,20.77,797.44,797.44,0,0,1,3.28-93.5A1048.85,1048.85,0,0,1,2593,1505q6.9-22.62,15.06-44.85-9.42,3.48-19.1,6.73C2584.61,1468.28,2580.29,1469.7,2576,1471Z"/><path class="cls-18" d="M2583.84,1677.9c0-.06,0-.12,0-.17l0,.25Z"/><path class="cls-18" d="M2583.81,1678.19a1.49,1.49,0,0,1,0-.21c0,.19,0,.39-.08.59Z"/><path class="cls-18" d="M2726.91,1598.56c.06-.47.13-.91.19-1.38-.06.47-.13.93-.19,1.38Z"/><path class="cls-17" d="M2950.78,1355.06a271.37,271.37,0,0,0-29.14-22.77,633.5,633.5,0,0,0-33.94,70.31c-31.1,76.93-50.16,158.73-61.14,241.15-8,62.17-11.5,125.17-9,187.88,17.6-5.21,35-11.28,52-18.15q13.17-5.32,25.2-10.91c-1.86-57.73,2.42-115.63,10.62-172.73,10.47-72.93,28.63-145.19,58.13-212.54q7.53-17.23,16.39-33.81C2969.66,1372.66,2960.23,1363.44,2950.78,1355.06Zm-117.54,462.69-.15,0s0,0-.07,0h0l-.06,0c-.09,0-.2.06-.29.09l0,0,0,0c-.93.31-1.86.62-2.79.91,1.28-.42,2.53-.85,3.81-1.29Z"/><path class="cls-17" d="M2999.87,1405.49q-9.66,19-17.76,38.76c-26.12,64.78-42,133.74-51.39,203.06l-.06.45c0,.09,0,.18,0,.27a3.87,3.87,0,0,1-.06.46l-.12,1c-5.89,46.09-9,92.72-8.29,139.26q8.55-4.73,16.59-9.69a453.91,453.91,0,0,0,46.48-32.9,1071.69,1071.69,0,0,1,15.53-141.83,952.4,952.4,0,0,1,39.62-150c-.17-.22-.35-.42-.52-.65C3026.93,1437.72,3013.65,1421.3,2999.87,1405.49Z"/><path class="cls-17" d="M2930.34,1650.13c0-.22.07-.44.1-.66s.06-.51.09-.75C2930.47,1649.19,2930.41,1649.66,2930.34,1650.13Z"/><path class="cls-18" d="M2930.72,1647.31a2.28,2.28,0,0,0,0-.26c0,.2,0,.39-.07.59C2930.69,1647.53,2930.7,1647.42,2930.72,1647.31Z"/><path class="cls-18" d="M2930.66,1647.76s0-.08,0-.12,0,.18,0,.28Z"/><path class="cls-18" d="M2930.62,1648a.41.41,0,0,0,0-.11c0,.14,0,.29-.05.44C2930.59,1648.25,2930.61,1648.14,2930.62,1648Z"/><path class="cls-18" d="M2930.56,1648.49l0-.13c0,.12,0,.24,0,.36Z"/><path class="cls-17" d="M3020.19,1658.66c.09-.62.18-1.24.26-1.89,0-.16.05-.33.07-.51Z"/><path class="cls-17" d="M3020.69,1654.88c-.06.47-.11.91-.17,1.38l.06-.47C3020.63,1655.48,3020.65,1655.19,3020.69,1654.88Z"/><path class="cls-17" d="M3084.55,1516.74a144,144,0,0,0-11.76-21.41c-2.55-3.82-5.21-7.51-7.92-11-1.27-1.59-2.57-3.16-3.86-4.72a980.39,980.39,0,0,0-40.43,176.14c0,.34-.08.67-.13,1q-4,31.76-6.15,63.67a373.17,373.17,0,0,0,32.23-35.28,269,269,0,0,0,26.5-39.5c8-14.74,13.56-28.48,17.1-42a141.83,141.83,0,0,0,4.76-43.5A123.79,123.79,0,0,0,3084.55,1516.74Z"/><path class="cls-18" d="M2833.09,1817.78h0l-.06,0Z"/><path class="cls-18" d="M2827.53,1148.52l.5.54-.39-.42Z"/><path class="cls-18" d="M2851.14,1211.71s0,0,0-.07l0,.11Z"/><path class="cls-18" d="M2757.81,1307.3h0l-.31.18.31-.18Z"/><polygon class="cls-19" points="2147.61 1560.77 2147.61 1560.77 2147.61 1560.77 2147.61 1560.77"/><path class="cls-19" d="M2147.67,1560.86l-.06-.09.06.09Z"/><path class="cls-19" d="M2147.69,1560.88l0,0,0,0Z"/><path class="cls-20" d="M2234.69,1686.36l.13,0a1.57,1.57,0,0,0-.23-.09Z"/><path class="cls-20" d="M2615.05,1412l-.1-.14a.71.71,0,0,1,.1.14Z"/><path class="cls-19" d="M2583.64,1614.41h0l.21.11-.21-.11Z"/><path class="cls-21" d="M2674.67,1507.91a131.28,131.28,0,0,0-14.32-.83,123.19,123.19,0,0,0-20.32,1.69,153.23,153.23,0,0,0-49.84,17.57,163.15,163.15,0,0,0-15.49,9.69,147.78,147.78,0,0,0-26.59,24.42,6.17,6.17,0,0,0-1.36,4.58,7,7,0,0,0,2.4,4.73,6.54,6.54,0,0,0,4,1.43,6.87,6.87,0,0,0,.8,0,6.74,6.74,0,0,0,4.23-2.46c3.69-4.35,7.49-8.52,11.31-12.4,11.83-11.74,23.2-20.8,34.76-27.71a148,148,0,0,1,15.27-7.86,124.57,124.57,0,0,1,16.6-5.89,112.58,112.58,0,0,1,27.47-3.64c3.58,0,7.1.25,10.77.64a2,2,0,0,0,1.94-1.69,2,2,0,0,0-.42-1.49A1.81,1.81,0,0,0,2674.67,1507.91Z"/><path class="cls-21" d="M2654.44,1789.3h0Z"/><path class="cls-21" d="M2746.86,1770.3a1.44,1.44,0,0,0-.57.11,265,265,0,0,1-29.32,10c.17-.05.32-.07.47-.11a255,255,0,0,1-32.07,6.66,241.54,241.54,0,0,1-31.55,2.36h0c-5.29,0-10.57-.16-15.88-.29a3.57,3.57,0,0,0-2.44.67,3.49,3.49,0,0,0,1.62,6.18q7.14.36,14.28,0c4.77-.2,9.58-.51,14.33-1a259.39,259.39,0,0,0,28.36-4.51q13.78-3,27.25-7.34c8.84-2.84,17.54-6.11,26.14-9.66a1.67,1.67,0,0,0,.85-2.12A1.58,1.58,0,0,0,2746.86,1770.3Z"/><rect class="cls-22" x="817.6" y="1650.36" width="338.23" height="46.57"/><rect class="cls-23" x="817.6" y="1656.17" width="332.72" height="34.75"/><g class="cls-24"><rect x="1090.11" y="1650.36" width="65.72" height="46.57"/></g><path class="cls-25" d="M1146.93,1663.72l-9.7,0-35.69-.08-117.75-.07L866,1663.6l-35.69.08-9.7,0-2.53,0c-.56,0-.86,0-.86,0l.86,0,2.53,0,9.7,0,35.69.07,117.77.08,117.75-.08,35.69-.07,9.7,0,2.53,0,.86,0s-.29,0-.86,0Z"/><path class="cls-25" d="M1146.93,1673l-9.7,0-35.69-.08-117.75-.07-117.77.07-35.69.08-9.7,0-2.53,0-.86,0,.86,0,2.53,0,9.7.05,35.69.08,117.77.07,117.75-.07,35.69-.08,9.7-.05,2.53,0,.86,0-.86,0Z"/><path class="cls-25" d="M1090.09,1673.51c0,12.51.1,22.64.21,22.64s.22-10.13.22-22.64-.1-22.64-.22-22.64S1090.09,1661,1090.09,1673.51Z"/><rect class="cls-17" x="873.51" y="1607.26" width="233.91" height="43.09"/><rect class="cls-17" x="1064.14" y="1607.51" width="63.66" height="42.59"/><rect class="cls-23" x="1070.12" y="1613.35" width="57.67" height="30.6"/><g class="cls-24"><rect x="1064.14" y="1607.51" width="63.66" height="42.59"/></g><path class="cls-16" d="M888.09,1640.9v-.24h-.22Z"/><path class="cls-16" d="M887.87,1623.13h.22v-.25Z"/><path class="cls-16" d="M887.88,1622.64h-.22v18.51h.21L1001,1641l33.74-.07,9.11,0,2.35,0,.79,0h-.82l-2.38,0-9.15,0-33.79-.08-112.79-.1v.24l-.22-.24h.22v-17.53h-.22l.22-.25v.25l158.85-.15v-.1l.08.1h-.08c0,5.78,0,10.24,0,13.27,0,1.52,0,2.68,0,3.46s0,1.19,0,1.19,0-.38,0-1.15,0-1.93,0-3.44c0-3.06,0-7.57,0-13.43v-.1H1047Z"/><path class="cls-16" d="M1046.94,1622.88v.1h.08Z"/><path class="cls-26" d="M1064,1628.51c0,11.91.1,21.56.21,21.56s.22-9.65.22-21.56-.1-21.57-.22-21.57S1064,1616.6,1064,1628.51Z"/><rect class="cls-27" x="859.11" y="1556.97" width="233.91" height="33.72"/><path class="cls-28" d="M1030.51,1564.84v-.07h0l-.21.24h.21v-.16Z"/><path class="cls-28" d="M1030.47,1584v-.2h-.17Z"/><path class="cls-28" d="M1041.18,1564.75v.23h.19Z"/><path class="cls-28" d="M1030.3,1564.51c0-.06-.4.47-.21.25h0v5.32c0,1.73,0,3.42,0,5,0,3.25,0,6.25,0,8.91v.2h.17l8.12-.1,2.21-.05a4.73,4.73,0,0,0,.74,0,5.45,5.45,0,0,0-.81,0l-2.24,0-7.85-.11v.2l-.17-.2h.17c0-2.61,0-5.54,0-8.71,0-1.62,0-3.31,0-5V1565h-.21l.21-.24h0v.23l10.67,0v-.23l.19.23h-.19c0,5.51.07,10.21.09,13.6,0,1.67,0,3,.06,4,0,.44,0,.79,0,1.08s0,.38,0,.39a1.34,1.34,0,0,0,0-.34c0-.27,0-.61,0-1,0-1,0-2.29,0-3.94,0-3.48.06-8.31.1-14v-.22h-.2Z"/><rect class="cls-15" x="1056.94" y="1562.24" width="36.08" height="22.8"/><g class="cls-24"><rect x="1052.19" y="1556.97" width="40.83" height="33.72"/></g><path class="cls-28" d="M1051.8,1573.87c0,9.18.09,16.62.21,16.62s.21-7.44.21-16.62-.09-16.62-.21-16.62S1051.8,1564.69,1051.8,1573.87Z"/><path class="cls-28" d="M1056.67,1567.64c0,.14,8.19.25,18.31.25s18.31-.11,18.31-.25-8.2-.24-18.31-.24S1056.67,1567.51,1056.67,1567.64Z"/><path class="cls-28" d="M1056.67,1573.65c0,.13,8.19.24,18.31.24s18.31-.11,18.31-.24-8.2-.25-18.31-.25S1056.67,1573.51,1056.67,1573.65Z"/><path class="cls-28" d="M1056.67,1579.73c0,.14,8.19.25,18.31.25s18.31-.11,18.31-.25-8.2-.24-18.31-.24S1056.67,1579.6,1056.67,1579.73Z"/><rect class="cls-29" x="899.24" y="1590.69" width="233.91" height="16.64"/><rect class="cls-30" x="1080.86" y="1592.77" width="52.29" height="12.6"/><g class="cls-24"><rect x="1077.91" y="1590.69" width="55.25" height="16.64"/></g><path class="cls-26" d="M1077.71,1599.32a73.91,73.91,0,0,0,.2,8,152.87,152.87,0,0,0,0-16A73.32,73.32,0,0,0,1077.71,1599.32Z"/><rect class="cls-30" x="916.06" y="1597.1" width="140.88" height="3.98"/><path class="cls-26" d="M899.07,1607.2c0,.13,38.76.24,86.58.24s86.57-.11,86.57-.24-38.76-.25-86.57-.25S899.07,1607.06,899.07,1607.2Z"/><path class="cls-26" d="M905.34,1607.28c0,.13,38.75.24,86.57.24s86.57-.11,86.57-.24-38.76-.25-86.57-.25S905.34,1607.14,905.34,1607.28Z"/><path class="cls-26" d="M905.34,1590.57c0,.13,51,.24,113.91.24s113.91-.11,113.91-.24-51-.25-113.91-.25S905.34,1590.43,905.34,1590.57Z"/><path class="cls-31" d="M2548.81,1605.86c-27.5-14.25-101.84-14.45-117.33-15.85s-341.53-4.35-341.53-4.35L2072,1614s-135.25,11.49-224.65,41.23c-35.73,11.89,169.74,126,169.74,126l177.46,53.42,299.41-29.19L2563.18,1633S2568.27,1615.93,2548.81,1605.86Z"/><path class="cls-32" d="M2302.34,1786.68c-44.93-2.69-57.89-19.78-89.16-8.92-17.15,5.9-30.31,18.38-42.61,33.65h0s-29.6,25.66-57.69,35.74c-30.51,10.94-36.54,14.08-53.64,27.13-33.9,5.92-36.43,36.3,0,29.82,41.06-7.3,168.95-17.59,196.16-20.39l.08,0c7.6-.59,15.5-1.4,23.53-2.5,46.41-6.32,95.09-18.37,95.09-18.37s-6.34-62.38-8.64-80.84C2365.45,1782,2347.34,1789.38,2302.34,1786.68Z"/><path class="cls-32" d="M2418.32,1977.1c-25.6-4.39-43.14-8.36-64.53-13.33-43.94-10.1-65.94-28.58-65.94-28.58-7.47,17.08-60.38,85.82-60.38,85.82s72.09,14.57,114.71,33.76c7.39,3.35,14.72,6.33,21.82,9.09h.07c3.36,1.38,8.07,5.3,13.76,10.62.35.75.73,1.41,1.06,2.21,7.11,17.25,12.24,54.49,11.45,71.74s13.43,47.43,11.06,69c-3.16,28.75,20.14,38.69,32,22.28s7.89-22.67,20.53-57.17c4.43-12.1,7.94-26,10.66-39h0a1.11,1.11,0,0,1,0-.17c1.58-7.59,2.9-14.86,4-21.26,10.61-43.08,36.48-105.09,17-132.24C2471.49,1970.28,2445.12,1981.69,2418.32,1977.1Z"/><path class="cls-31" d="M1739.29,1760.16c-12.23,73.95,12,102.55,112.67,154.58,73.91,38.19,346.31,130.56,393.47,144.91,56.75,17.26,90.51,31.64,90.51,31.64l59.91-144.91s-449.15-285.72-505-293.75S1751.52,1686.2,1739.29,1760.16Z"/><path class="cls-31" d="M2882.56,1669.66c-46.29-26.79-142.57-48.42-224.46-49.42-83.48-1-94.92-4.56-94.92-4.56l-34.38-10.14-174.49,162.25v110S2641.51,1902,2701.9,1905c148.47,7.31,202.31-39.62,225.46-91.48S2928.86,1696.45,2882.56,1669.66Z"/><path class="cls-32" d="M2393.84,1018.56c-6.1-7.92-7.86-62.65-8-65.17-1.3-18.41-1.41-36-1.35-45.92v-1.23c0-1.18.05-2.25.05-3.2.06-2.64.12-4.16.12-4.16l-15.89.29-62.48,1.12,7.89,48.86s17,9.88,18.32,27.68c.56,8.42-32.17-16.78-31.78-6.9,1.47,34.85-47.82,43.11-57.15,49.18-17.47,11.28-92.6,31.66-92.6,31.66,57.95,94.7,157,94.08,157,94.08,111.1-3,154.19-94.13,154.19-94.13s-40-12.18-59.66-24.87A34.56,34.56,0,0,1,2393.84,1018.56Z"/><path class="cls-33" d="M2554.19,1106.62c-8.79-30-39.18-47.39-41.08-48.41l-.07-.07a9.42,9.42,0,0,1-1.4-.44,19.26,19.26,0,0,0-2.12-.73,8.75,8.75,0,0,0-1.54-.5c-.51-.15-.95-.37-1.24-.44s-.73-.22-.95-.29l-.52-.22c-21.09-6.76-43.57-13.67-64-19.41-19.33-7-30.31-11.19-30.31-11.19,0,.87-.22,85.48-78.28,94.5-4.61.58-9,.87-13.33,1-4.32-.15-8.71-.44-13.4-1-78-9-78.2-93.63-78.2-94.5,0,0-11.06,4.14-30.39,11.19-20.43,5.74-42.91,12.65-63.93,19.41,0,0-.22.07-.58.22a8.76,8.76,0,0,0-.88.29,11.19,11.19,0,0,0-1.25.44,6.08,6.08,0,0,0-1.53.5,20.12,20.12,0,0,0-2.2.73,6,6,0,0,1-1.39.44c-14.28,5.16-45.92,17.66-69.35,36.78a41.72,41.72,0,0,0-3.29,2.84c.95,10.25,2.49,26,4.39,45.36,2,27.33,6.59,59,11.2,128.37,3.74,57.87,7.55,208,1.32,254.14-1.32,8.58-2.27,16.87-2.85,24.79-2.42,26.1-1.91,47.61,6.51,63.53,11.06,0,22.56.37,34.27.8,32,1.68,54.19,26.25,104,24.21,32.59,2.25,78.58-3,107.57-4.51,28.93,1.46,60.78-8.86,93.37-11.19,49.79,2.11,65.39,11.41,100.39,3.92,7.91-1.74,25.77-17.19,25.77-25.78,0,0-19.4-141.48-5.27-269.21S2563.41,1137.45,2554.19,1106.62Z"/><path class="cls-32" d="M1971.69,1295.47s-20.19,108.3-43.31,180.89c-13.57,42.6,109,80.44,134.5.63,19-59.51,28.07-75.4,35.51-110.82C2098.39,1366.17,1982.29,1307,1971.69,1295.47Z"/><path class="cls-33" d="M2027.46,1119.92c-32.8,59.74-83.55,253.66-83.55,253.66s32.12,41.84,128.91,46.07c6.82.3,34.88,3.71,51.73.43,22.54-43.3,42.09-129.78,57.3-202.41-17.69-56.65-84.09-121.27-93.26-143.87C2046,1094.81,2032.46,1110.82,2027.46,1119.92Z"/><path class="cls-32" d="M2646,1251.18c-8.49,13.15-93.9,113.45-93.9,113.45,13.36,33.66,30.28,75.6,61.1,125.6,14.67,23.79,25.61,31.11,44.82,27.71,38.47-6.81,69.82-75.81,59.21-103.69C2690.23,1343.21,2646,1251.18,2646,1251.18Z"/><path class="cls-33" d="M2493.12,1052.29c-5.2,23.81-59.66,98.63-67.46,157.43,27.34,69,61.32,151,90.9,189.91,17.17.4,44.24-7.66,50.92-9.1,94.67-20.4,119.22-67,119.22-67s-83-182.62-125.5-236C2554.73,1079.37,2538.62,1065.87,2493.12,1052.29Z"/><path class="cls-34" d="M2202.92,1837.92c-12.26-8.3-26.45-18.17-42.12-28s-32.4-20.35-49.28-30.59c-17-10-34.17-19.81-50.28-29s-31.48-17-44.57-24-24.27-12.23-32-16.09l-12.29-5.81,42.28,25.45,43.4,25.86c15.92,9.39,32.87,19.45,49.69,29.73,17,10,33.92,20.06,49.68,29.71l43.24,26.11,30.58,18.52,11.68,7-10.88-8.12C2225.07,1853.63,2215.18,1846.22,2202.92,1837.92Z"/><path class="cls-34" d="M2677.21,1717.82c-9,.89-18.79,2.16-29.11,3.59l-15.81,2.51-16.42,3.18c-11.11,2.29-22.55,4.84-34.13,7.62s-23.32,5.69-34.91,9.07c-23.26,6.52-46.33,13.53-68.14,19.12-21.73,5.88-42.35,10.24-60.08,13.64s-32.58,6-43,7.52l-16.41,2.38s24.16-1,60.09-6.12c17.92-2.76,38.79-6.37,60.92-11.48,22.08-5.35,45.28-12,68.54-18.19l34.7-9.25c11.46-2.93,22.79-5.63,33.79-8.06l31.81-6.53c10.16-1.86,19.78-3.54,28.71-4.81s17.14-2.26,24.41-3.28c7.29-.75,13.65-1.53,18.91-2l16.54-1.37-16.62-.1C2710.42,1715.58,2695.27,1715.84,2677.21,1717.82Z"/><path class="cls-35" d="M2411.34,1413.38c-69.29,32.45-157.24,24.33-203.5,55.35s-69,92.93-69,92.93,60.73-26,135.86-39.86,198.67-73.84,204.34-194.3C2479.09,1327.5,2466.35,1387.62,2411.34,1413.38Z"/><path class="cls-32" d="M2031,1471.87c-23.8-20-85.27-21-102.59,4.49,0,0-15,41,26,78.2s97.09,45.9,97.09,45.9l8.82-53.17S2054.76,1491.87,2031,1471.87Z"/><path class="cls-16" d="M2250.21,1404c-50.18,2.58-89.11-22.33-89.11-22.33-71.43,22.17-97.23,106.44-106.75,152.82s-10.92,123.75,2.06,183.87,44.12,60.13,44.12,60.13c-13.9-9.82-7.28-31.69,7-55.75,34.2-57.7,92.74-97.11,158.8-110.64l1.21-.24s6.22-97,5-126.54C2269.94,1424.31,2250.21,1404,2250.21,1404Z"/><path class="cls-32" d="M2185.78,1555.32c2.63-3,4.75-5.93,5.67-8.58,1.18-3.44.11-9.82-11.27-9.26-16.88.83-62.06,5-69.75,1.94-12.88-5.07-44.69-19.06-45.48-30.12s8.24-26.26,24.55-41.87,9.11-33.33,7.13-35c-5.31-4.39-45.51,27-55.14,34.15s-21.76,22-26.18,29.51c-16.77,28.49-13.33,86.81,9.94,102.21,0,0,23.79,24.09,66.38,31.3,19.67,3.33,64.5-12.82,71.26-17.53,6.3-4.39,25.16-24.89,14.66-28.15,10.79-9,23.29-20.4,16.78-26.35C2192.5,1555.93,2189.42,1555.32,2185.78,1555.32Z"/><path class="cls-36" d="M2254.24,1485.61c-21.1-21.69-66.14-57.63-66.14-57.63-22.49-15.58-54.08-19.56-76.63,14.69-19.11,29-7.95,60.08,19.28,78.15,15.84,10.51,88.43,58.82,127.15,54.66s137.63-64.8,137.63-64.8l-9.36-39.48Z"/><path class="cls-37" d="M2117.14,1425.55c-10.91,11.55-32.73,48.38-13.69,74.48s70.11,50.43,70.11,50.43c.31-19.39,9-52,23-71.16,17.12-23.42,33.65-19.45,33.65-19.45C2173.48,1393.75,2128.05,1414,2117.14,1425.55Z"/><path class="cls-35" d="M2547.16,1685.3c-10.06-1.15-36.5,17.57-52.78,23.25s-80.17-42.56-122-64.55c-40.09-21.08-93-40-126.17-19.69l89,117.48c.49-.6.71-.93.71-.93s52.85,20.61,104.67,19.21c12.19-.29,24.11,4.15,32.34,13.14,5.86,6.39,13.68,11.63,22.11,8.45,17.65-6.78,20.49-22.32,39.93-54.53S2557.18,1686.4,2547.16,1685.3Z"/><path class="cls-36" d="M2476,1840.28c-7.35-6.87-39.8-7.73-56.24-12.89s-38.28-81.81-58.4-124.32-52.69-91.44-93.87-91.26c0,0-67.54-3.28-128.05,27.48-101.88,9-83.16,125.28-38.94,139.15,76.59,24,173-19.76,173-19.76s29.81,48,72,77.84c10,7,16.79,17.71,17.93,29.79.81,8.57,3.85,17.45,12.56,19.92,18.17,5.15,29.85-5.58,64.89-19.76S2483.38,1847.15,2476,1840.28Z"/><path class="cls-36" d="M2250.61,1404.39c.11-.79-3.88-24.78-3.88-24.78-.4-2.89,3.27-1.68-1.19-5.88-19.83-19-93.11-48.38-88.26-30.62,5.95,21.79,3.82,38.51,3.82,38.51s5.28,13.14,24.13,32.37c14.06,14.34,47.17,34.35,60.83,31,7.2-1.7,7.6-13.55,6.46-24.73C2251.6,1410.72,2250.32,1406.32,2250.61,1404.39Z"/><path class="cls-38" d="M2248.2,1386.56c.15-1.06.3-2.11.45-3.09a18.76,18.76,0,0,1-8.28-.83l-55.14-23.1s22.62,56.29,66.54,54.4C2250.55,1401.19,2247.82,1389.12,2248.2,1386.56Z"/><path class="cls-39" d="M2310.67,1239.29c-.65-4.17-3.93-7.22-6.35-10.68-15.9-22.73-22-10.44-25.72-12.45l12.71,54.89c1.8,2,3.61,4,5.42,6a3.3,3.3,0,0,0,4.94,1c3.52-1.76,7.49-4.15,7.87-8,.22-2.34-1-4.55-1.53-6.84C2306.11,1255.34,2311.92,1247.29,2310.67,1239.29Z"/><path class="cls-36" d="M2296.26,1243.83c-8.9-30.15-62.41-59.61-81.87-69.49-29.93,1.3-58.47,11.35-71.83,20.71-29.85,20.8-18.85,64.29-18.85,64.29.35,33.27,8.12,49.47,8.12,49.47s1.22,2.52,3.66,6.59c2.45,4.24,6.11,10.22,10.74,17,3.23,4.42,6.81,9.27,10.82,13.95,5.06,6.15,19.73,3.64,25.22,9.88,32.65,37.77,81.17,39.07,108,24.17,14.85-8.21,24.06-24,27-39.53,2.12-11.2.27-24.76-.09-33C2315.87,1278.89,2305.25,1274.33,2296.26,1243.83Z"/><path class="cls-39" d="M2313.39,1170.48c-6.82-4.52-26,1.69-38.44,2-19,.56-48.63-25.17-68.47-24.14-35,1.81-29.95,27.33-66.37,40.7-17.15,6.3-20.84,29.65-26.48,46.92-40,35.16,25,102.61,43.41,110.34,6.79,2.86,10.74-19.5,14-22.81-1.14-11.58-5.12-22.83.93-20.47,10.06,3.92,7.65-33.84,33.15-42.45,6.69-2.26,36.24,3,54.93-17.69,4.75-5.26,11.86-7.77,19-7.64,15.07.28,38.34-.66,45.56-30.6C2327.55,1192.46,2329.18,1180.93,2313.39,1170.48Z"/><path class="cls-36" d="M2186.09,1297.17c-4.61-5.29-14.32-11-24.59-4.11-21.3,14.21,6.21,47.89,21.83,47.79,11.36-.08,10.65-18.23,9.41-28.12A29,29,0,0,0,2186.09,1297.17Z"/><path class="cls-40" d="M2237.32,1611.71c-81.27,1.14-188.26,56.62-188.26,56.62-19.72,162.82,116.89,131.16,156.12,124s61.65-30.79,61.65-30.79c-18.47-23.47-42.32-77.62-45-111.41C2219.68,1622.1,2237.32,1611.71,2237.32,1611.71Z"/><path class="cls-15" d="M2287.2,1339.12c-4.37-3.57-8.49.44-9.09,4.19,0,0-2.37,9.13,1.45,14.5s13.7,6.55,14.67,0S2291.56,1342.69,2287.2,1339.12Z"/><path class="cls-41" d="M2657.64,1264.16l-93.84,216,102.23-68,19.77-55.51S2647,1306,2657.64,1264.16Z"/><path class="cls-4" d="M2357.19,1671l7.67,8,93.66-116,36.8-217.46-43.54-26.09S2409.84,1376,2357.19,1671Z"/><path class="cls-15" d="M2653.45,1264.14l-19.46-1.63-.07.06c-10.68,17.87-27.09,63.85-27.09,63.85-78.85-16.84-155-7-155-7l14.22,16.44c52.61-11.33,201,20.45,201,20.45l15.06.37C2643.53,1306.77,2653.45,1264.14,2653.45,1264.14Z"/><polygon class="cls-41" points="2553.88 1448.81 2557.88 1634.34 2586.88 1634.34 2685.8 1356.66 2655.35 1356.28 2553.88 1448.81"/><path class="cls-42" d="M2454.91,1329.91c-57.95,132.66-94.77,356.7-94.77,356.7,67.3-52.27,209.38-52.27,209.38-52.27L2667,1356.28C2589.17,1315.24,2454.91,1329.91,2454.91,1329.91Z"/><path class="cls-4" d="M2634,1262.51l-.07.06c-10.68,17.87-27.09,63.85-27.09,63.85,17.05,3.11,40.89,12.32,40.89,12.32C2633.07,1320.45,2634,1262.51,2634,1262.51Z"/><path class="cls-38" d="M2042.61,1461.49a85.77,85.77,0,0,0-19.88,17.34,67.42,67.42,0,0,0-8.27,12.46,120.36,120.36,0,0,0-6.21,14c-.8,2.44-1.74,4.84-2.43,7.3s-1.18,5-1.77,7.42a109.87,109.87,0,0,0-1.69,14.7,93.3,93.3,0,0,0,.34,13.79,77.16,77.16,0,0,0,2,12.18c3.41,15,8.95,23.64,8.95,23.64s-4.73-9.13-7.21-24a99.27,99.27,0,0,1-1.3-12,92.07,92.07,0,0,1,.19-13.44,106.66,106.66,0,0,1,2.19-14.16c.63-2.35,1.27-4.73,1.92-7.11s1.63-4.67,2.43-7a58.6,58.6,0,0,1,2.91-6.83,62.94,62.94,0,0,1,3.27-6.58,91.92,91.92,0,0,1,8-11.73c5.69-7.32,12.53-12.77,18.4-17.43,6-4.51,11.35-7.94,14.94-10.58s5.58-4.23,5.58-4.23l-6.19,3.24A178.12,178.12,0,0,0,2042.61,1461.49Z"/><path class="cls-38" d="M2035.8,1457.57c-1.55-.76-3.29-1.63-5.19-2.58a44.5,44.5,0,0,0-6.32-2.51,46.59,46.59,0,0,0-7.27-2,58.65,58.65,0,0,0-7.9-1.33,79.68,79.68,0,0,0-8.2-.53,108,108,0,0,0-29.55,4.05,97,97,0,0,0-12.72,4.39,96.63,96.63,0,0,1,13-3.29,105.8,105.8,0,0,1,29.08-1.52,74.53,74.53,0,0,1,7.73,1.16,53.81,53.81,0,0,1,7.28,1.87,41.39,41.39,0,0,1,6.52,2.44,37.5,37.5,0,0,1,5.53,2.76l4.45,2.69,3.11,2.5,2.71,2.16,4.71-5.56-3.24-2.19C2038.48,1459.37,2037.23,1458.53,2035.8,1457.57Z"/><path class="cls-36" d="M2448.05,1470.94c-1.3,1-3.42,2.61-5.85,4.34a55.15,55.15,0,0,0,3.69-4.34c3.4-3.18,5.1-10.78,1.44-11.91-8.9-2.77-10.47,4.24-18.31,8.14s-20.2,6.27-22.77,6.75c-4.84.91-3.46-3.36-1.34-5.05,5.55-4.41,8.35-6.7,12.85-11.74,4.14-4.62,6.28-12.3,1.57-14.12s-16.13,5.93-25.66,12c-6.47,4.1-15.24,12.41-21.52,15.27a113.68,113.68,0,0,1-15.07,5.17l-12,64.06s37.47-18.76,56.92-23.71c4,0,18.56.08,25.83-1.09,8.45-1.36,21.81-9.3,19-14.16,5.42-4.18,9.58-9.5,7.09-12.27a5.69,5.69,0,0,0-.79-.64c.08-.25.22-.49.29-.74,4.42-4.17,8.07-8.53,7.59-13.45S2451.58,1468.2,2448.05,1470.94Z"/><path class="cls-38" d="M2137.36,1563c-3,.37-6,.73-9,.91a67.12,67.12,0,0,1-8.62.17,147.24,147.24,0,0,1-15.39-1.82,83.27,83.27,0,0,1-14.82-3.63,27.66,27.66,0,0,0,3.72,2.07,71.93,71.93,0,0,0,10.54,4c2.23.68,4.69,1.29,7.31,1.84a80,80,0,0,0,8.37,1.37,58.49,58.49,0,0,0,9.13.2c3.09-.14,6.19-.46,9.28-.79a224.27,224.27,0,0,0,33.24-7.11c8.88-2.62,14.64-4.88,14.64-4.88l-15.21,2.46C2161.49,1559.29,2149.42,1561.48,2137.36,1563Z"/><path class="cls-38" d="M2163,1589a170.06,170.06,0,0,1-33,6.16,84.49,84.49,0,0,1-33-3.34,134.88,134.88,0,0,1-14.56-5,80.51,80.51,0,0,0,13.91,6.89,83.32,83.32,0,0,0,15.45,4.42,78.29,78.29,0,0,0,18.49.64,116.83,116.83,0,0,0,33.39-7.81,76.63,76.63,0,0,0,13.86-7l-4,1.54C2171.06,1586.46,2167.41,1587.68,2163,1589Z"/><path class="cls-38" d="M2122.49,1620.72a71.25,71.25,0,0,1-28-1.72,56.31,56.31,0,0,1-12.08-4.46,50.24,50.24,0,0,0,11.79,5.42,65.27,65.27,0,0,0,28.47,2.55,176.83,176.83,0,0,0,27.9-6.25c7.45-2.27,12.28-4.15,12.28-4.15s-5,1.35-12.56,3.16A258.71,258.71,0,0,1,2122.49,1620.72Z"/><path class="cls-32" d="M2699.81,1433.39c-28.89,13-33.88,18-33.88,18s7.9-23-2.61-31l-12.87,36.12a72.36,72.36,0,0,1-24.92,6.08c-14.15.82-52.48-20.62-60.79-25.22-12.7-7-27.78-9.47-32.06-4.34-2.76,3.31.58,9.32,5.67,15.24-5.35-1.84-11.12-2.72-16.91-1.39-16.81,3.86-5,16.12,0,22.73a44.29,44.29,0,0,0,4.08,4.26c-6.73,4.66,1.42,13.33,5.22,18.37a86.88,86.88,0,0,0,8.48,8.25c-3.34.3-7,1.47-7.58,6.12-.58,4.29,30.29,32.55,38.1,37s53.09,13.17,60.27,12.55,24.87-4.07,37.48-18.91c1.76-2.07,13.85-28.22,13.85-28.22l-39.33-1.18.63-3-1.53-.06,2-9.59,2.39.19,63.36-44.84S2728.7,1420.37,2699.81,1433.39Z"/><path class="cls-38" d="M2679,1467.4c-.58-3.67-.92-7.31-1.25-10.91a54.23,54.23,0,0,0-5-19.32,119.37,119.37,0,0,0-6.55-12.38c-1.75-2.88-2.87-4.45-2.87-4.45l2.22,4.79c1.41,3,3.24,7.48,5.22,12.83a57.53,57.53,0,0,1,2.56,8.72,89.35,89.35,0,0,1,1.14,10.08c.24,3.58.5,7.34,1,11.14s1.54,7.75,2.24,11.33a73,73,0,0,1,1.68,21.86,70.61,70.61,0,0,1-4.08,18.76,119.35,119.35,0,0,1-5.39,12.72c-1.49,3-2.44,4.68-2.44,4.68a77.86,77.86,0,0,0,9.82-16.62,64,64,0,0,0,5.38-19.25,76.85,76.85,0,0,0-1.24-22.92C2680.6,1474.53,2679.47,1471.1,2679,1467.4Z"/><path class="cls-38" d="M2593.4,1482.42c-2.61-.66-5.32-1.43-8-2.21a32.83,32.83,0,0,1-7.66-3.08,140.24,140.24,0,0,1-14-9.1c-4.38-3.15-8.51-6.07-12-8.7l-11.7-8.57s3.91,4.31,10.33,10.2,15.11,13.63,25.56,19.5a36.43,36.43,0,0,0,8.4,3.25c2.83.83,5.59,1.38,8.28,2,5.37,1.11,10.43,1.78,14.75,2.42,8.67,1.14,14.5,1.42,14.5,1.42l-14.1-3.52Z"/><path class="cls-38" d="M2585.22,1509c-2.93-.63-6-1.31-9-2.07a28.7,28.7,0,0,1-4.32-1.47c-1.36-.65-2.76-1.34-4.13-2.13-5.47-3.17-10.76-6.88-15.7-10.35s-9.56-6.76-13.44-9.66l-13.14-9.5s4.54,4.65,11.83,11.1,17.16,14.9,28.57,21.66a39.68,39.68,0,0,0,4.5,2.32,31.17,31.17,0,0,0,4.81,1.57c3.23.83,6.33,1.39,9.37,1.88,6.05,1,11.75,1.47,16.62,1.9s9,.45,11.81.51a40.28,40.28,0,0,0,4.49-.14s-6.45-.89-16-2.55C2596.7,1511.3,2591.15,1510.15,2585.22,1509Z"/><path class="cls-38" d="M2599.92,1534.83c-3.87-.88-8.32-2.18-13.08-3.54l-7.27-2.23a42.77,42.77,0,0,1-7-2.81c-1.81-1.17-4.07-3-6-4.58l-6-4.79-10.68-8.44c-6.29-4.91-10.66-8-10.66-8s3.55,4,9.25,9.59c2.89,2.75,6.18,6,9.9,9.37,1.87,1.66,3.77,3.41,5.8,5.09a76.21,76.21,0,0,0,6.54,5.08,46.11,46.11,0,0,0,7.74,3c2.55.77,5.08,1.39,7.54,2,4.9,1.16,9.56,1.84,13.54,2.41a74.39,74.39,0,0,0,9.73.65,19.52,19.52,0,0,0,3.69-.33,31.16,31.16,0,0,1-3.64-.41C2607,1536.52,2603.79,1535.72,2599.92,1534.83Z"/><path class="cls-43" d="M1455.5,1141.36c-38.61,57.5-6.44,120.11-2.58,155.89s0,61.33-12.87,67.71,96.2-4.06,104.73-103.61.81-122.54.81-122.54S1494.11,1083.86,1455.5,1141.36Z"/><path class="cls-44" d="M2014.93,1619.47c-2.93-2.82-36.27-34.67-75.33-72.49-61.28-59.32-131.83-126.66-134.71-129-25.71-20.57-32.78-26.45-58.77-13.27s-20.54,38.3,6.12,69.35c25,29.16,49.27,53.6,114.86,102.81,13,9.79,104.28,89.13,108.25,93.4,9.31,10,21.12,23.11,29,30.29,6.35,5.74,16.33-2.39,13.41-7.33a178.28,178.28,0,0,0-11.33-16.09s5.77,6.09,13.55,13c4.67,4.12,15.16-4.16,11.39-8.86-6.65-8.32-11.37-15-11.37-15s8.72,10.44,15.91,12.43c3.08.86,8.06-4.7,7.79-7.71-.5-5.59-12.44-16.29-12.44-16.29,4.13,3.19,9.92,8.88,15.64,10.87,3.55,1.23,8.54-5.77,6.29-9.43C2047.14,1646.22,2036.07,1639.8,2014.93,1619.47Z"/><path class="cls-45" d="M1782.71,1382.85c-12.93-13.19-42.09-31.3-62.82-18.27-19.17,12.05-33.1,32.75-14.68,68.79,13.79,27,46.81,55.13,63.18,66.84a5.34,5.34,0,0,0,5.31.37,5.28,5.28,0,0,0,3-4.39c7.95-13,30.35-38.48,48.48-51.16a12.19,12.19,0,0,0,2-19.16C1812.36,1411.57,1788.89,1389.15,1782.71,1382.85Z"/><path class="cls-46" d="M1778.11,1408.17c-25.75-67-59.45-62.89-112.74-58-23,2.11-77.72,20.08-88,79.07-6.43,36.82-31,194.94-28.69,236.38,0,0,30.27,52.74,154.12,36.65,32.93-4.28,59.41-12.26,77.93-21.44,17.2-8.53,27-45.7,25.29-62.06C1799.51,1556.38,1790.23,1439.69,1778.11,1408.17Z"/><path class="cls-47" d="M1699.2,1344.71c-17.82-1.08-46.67,0-56.31,7-6.74,4.86-8.36,15.26,4.68,23,17.69,10.53,36.84,14.16,60.92,12.1,19.15-1.64,30.36-12.29,32.64-19C1746.29,1352.7,1727.07,1346.41,1699.2,1344.71Z"/><path class="cls-48" d="M1789.12,1444.63c-14.23-58.27-30.83-75.22-30.83-75.22-6.09-6.29-17.7-13.5-17.7-13.5,18.68,17.22,32.72,86.44,32.72,86.44l-49.22,13.34s-14.29-53.41-33.63-68.33a96.08,96.08,0,0,0-75.62-18.43c-18.12,11.12-24.07,25.13-24.07,25.13s29-14.43,61.3-4.91,41.78,36.76,42.76,69.94c.94,31.87-25.1,120.72-75,118.68s-57.73-49.44-57.73-49.44c-15.61,60.56-19.49,92.74-20.6,141.66-1,43.61,28.37,145.06,77,165.92,60.41,25.89,118.4,18.68,167-5.79,29.28-14.76,60.13-32.47,65.6-72,4.76-34.5-6.9-89.81-16.41-130.13C1825.05,1587.07,1802.61,1499.85,1789.12,1444.63Z"/><path class="cls-47" d="M1716.1,1499.59l11.06,93.32c15.46,4.22,66.57-7,79.43-20.15,0-9-18.49-91.12-18.49-91.12C1769.28,1498.16,1716.1,1499.59,1716.1,1499.59Z"/><path class="cls-49" d="M1869.6,1549.59c-41.7,3.05-75.5,49.81-91.34,77.64-15.11,26.58-53.52,88.21-47.8,148.78,5.19,55.09,71,57.1,94.55,53.23,92.54-15.25,121-149.69,120.79-209.39C1945.61,1566.05,1910.47,1546.59,1869.6,1549.59Z"/><path class="cls-50" d="M1843,1569.56c-21,19.24-20.58,58.73-19.11,75,4,44.59,32.54,203.58,38,196,15.14,5,72.41-10,72.41-10s17.37-174.55,7-230C1937.39,1567.84,1884.58,1531.49,1843,1569.56Z"/><path class="cls-49" d="M1746.43,1560.92c-42.9,3.14-77.67,51.23-94,79.86-15.54,27.34-55,90.73-49.17,153,5.35,56.67,73.09,58.74,97.26,54.75,95.19-15.69,110.61-156.72,119.11-216.49C1825.72,1589.61,1788.46,1557.84,1746.43,1560.92Z"/><path class="cls-50" d="M1722.32,1575.47c-24.86,15.6-31.8,55.63-33.36,72.41-4.27,45.85-5.13,212,1.84,205.26,14.38,7.87,77.84,4.55,77.84,4.55s43.94-176.45,47.41-232.73C1818.14,1591.12,1771.5,1544.62,1722.32,1575.47Z"/><path class="cls-51" d="M1955.19,1498.66c-3.89,1.95-134.08,74.92-196.28,16.3-48.8-46-92.3-91.19-95.46-93.56-28.2-21.08-36-27.12-63.28-12.13s-19.83,45.66,5.49,81.32c25.09,35.34,64.82,75.59,95.59,93.92a236.37,236.37,0,0,0,168.13,29.11c42.42-8.65,113.9-57.13,119.09-60.61C2000.83,1544.73,1983.28,1484.57,1955.19,1498.66Z"/><path class="cls-51" d="M2014.29,1506.91c-7.85,2.42-14.85,4.15-14.85,4.15s9.67-2.77,15.8-8.8c2.43-2.38,1.19-10.74-2-11.34-4.87-.92-15.54,3-15.54,3,6-2.94,9-3.46,13.18-8.39,2.58-3.07.69-13.83-2.85-13.6-7.67.51-15.13,6-26,11.83,0-3.1-.13-5.88.06-7.76l8.52-19.07c-6-8.17-11.62-3.58-20.21,4.32-6.63,6.11-21.14,21.28-21.52,32.19-.07,2.34-35.6,20.35-63.85,33.6-10.26,4.8,18.33,76.18,37.87,65.33,33.44-18.57,51.76-26.23,66.92-34.91,9-5.18,18-8.39,28.06-13.84,5.34-2.9,2.82-18.87-2-17.77-4.15,1-10.13,2.51-10.13,2.51s3.34-1.82,13.2-7C2024.84,1518.28,2020.64,1505,2014.29,1506.91Z"/><path class="cls-45" d="M1674.74,1410c-20.82-17.3-52.67-31.53-74.36-16.88-20.06,13.55-33.08,39.69-12.11,77.56,16,28.86,42.26,59,60.34,75.7a5.18,5.18,0,0,0,5.44.9,5.11,5.11,0,0,0,3.14-4.51c9.67-14.87,37.94-45.48,58.87-59.77a12.2,12.2,0,0,0,2.31-19.2C1706.61,1445,1681.78,1416.73,1674.74,1410Z"/><path class="cls-1" d="M1648.93,1181.88c-90.46,38-119.45,61.45-119.45,61.45s15.11,51.92,40.8,83.94c27.26,34,79.53,57.85,113.8,56,47.11-2.61,87.08-22.51,110.66-83.83,17.12-53,18.58-95.33-8.23-145.2C1786.51,1154.2,1739.4,1143.87,1648.93,1181.88Z"/><g class="cls-52"><path class="cls-43" d="M1674.36,1093.84c-46.85,4.54-102.38,21.11-128.36,80.54-12.27,28.06-17,51.57-1.22,87,12.43,27.91,55.85,84.11,135.64,66,67.43-15.35,106.81-44.14,111.89-85.25,4.79-38.76.48-66.47-14.78-89.57C1752.54,1114.65,1711.44,1090.25,1674.36,1093.84Z"/><path class="cls-50" d="M1719.07,1319.69l-77.68,3.82s3.3,28.82,5.61,36.13,20.91,14.58,41.72,15.48c19.52.85,43.33-5.23,39.45-14.84S1719.07,1319.69,1719.07,1319.69Z"/><path class="cls-51" d="M1674.16,1130.59c-108,13.92-99.84,107.32-91.62,138.81,7.3,28,31.09,86.62,134.85,65.76,37.21-7.48,71.24-46.11,70.93-85.27S1782.14,1116.67,1674.16,1130.59Z"/><path class="cls-51" d="M1551.84,1243.18c-9.44,19.83,18.09,56.11,39.64,50.77,16.27-4,1.37-39.55-4.59-49C1579.68,1233.5,1561.16,1223.6,1551.84,1243.18Z"/></g><path class="cls-35" d="M1800.93,1903.38c-33.46-15.94-38.86-30.29-36.09-34.59s23.3-94.26,23.3-94.26-83.26-24.19-102.62-1.19l-7.34,148.31s-6.46,10.58,44.53,24.93,110.66,25.47,111,7.36S1834.4,1919.33,1800.93,1903.38Z"/><path class="cls-35" d="M1967,1871.77c-20.54-7.51-34.94-14-33.89-25.46s7.53-96,7.53-96-43.15-31.44-50.83-27.77-51.19,16.12-47.56,42.18l27.79,134s-4.3,15.91,20.3,21.1,119.14,12.25,118.21-6.63S1987.55,1879.28,1967,1871.77Z"/><path class="cls-43" d="M1643.84,1082.16c-111.55,10.22-127.85,120.11-106.4,158.44,0,0,221.85-93,240.9-86.67C1778.34,1153.93,1755.39,1071.94,1643.84,1082.16Z"/><path class="cls-53" d="M1751.46,1269.92l-37.19,9.11c0,.17,0,.33.09.48a23.6,23.6,0,0,0,6,10.85c4.74,4.88,11.38,7.23,17.87,5.64,6.33-1.56,11-6.5,13-12.8a23.43,23.43,0,0,0,.35-12.82C1751.56,1270.23,1751.5,1270.08,1751.46,1269.92Z"/><path class="cls-15" d="M1734.64,1281.62a24.14,24.14,0,0,0,15.31-11.33l-34.17,8.37A24.28,24.28,0,0,0,1734.64,1281.62Z"/><path class="cls-54" d="M1720.35,1290.36c4.74,4.88,11.38,7.23,17.87,5.64,6.33-1.56,11-6.5,13-12.8a72.34,72.34,0,0,0-11.85,1A70.54,70.54,0,0,0,1720.35,1290.36Z"/><path class="cls-43" d="M1699,1141.18l-120.53,31.91s-37.81,48.8,0,62.88,183.86-81.65,183.86-81.65C1757.56,1148.22,1699,1141.18,1699,1141.18Z"/><path class="cls-55" d="M1591.48,1294s-31,6.3-42.84-41.56c0,0,2.84-26.28,25-19.24,0,0-36.11-36.19-28.1-94.34,0,0-35.94,58-7.58,112.17s65.46,75.55,86.26,76.48C1624.27,1327.46,1607.38,1321.44,1591.48,1294Z"/><path class="cls-56" d="M1539.78,1126.4c-3.9.71-7.8,4.22-7.8,5.28s-2.48,9.5-2.48,12.32-1.42,15.83-1.42,15.83l3.19,7,2.48.35,3.9-5.63s1.78,1.41,2.13-2.11,13.12-29.91,13.12-29.91S1543.68,1125.7,1539.78,1126.4Z"/><path class="cls-38" d="M1570.38,1246.84a2.09,2.09,0,0,0-.06,3l13.83,14.35-13-3.58a2.13,2.13,0,0,0-2.61,1.46,2.11,2.11,0,0,0,1.48,2.59l27.85,7.69-24.51-25.42A2.14,2.14,0,0,0,1570.38,1246.84Z"/><path class="cls-57" d="M1599,1211.57l-12.76,25,35.09,24.64s-9.92-24.29,5.32-34.14S1599,1211.57,1599,1211.57Z"/><path class="cls-38" d="M2274.88,1302a45.41,45.41,0,0,1-4.48-2.4c-4.08-2.77-6.41-9.14-6.43-9.2a1.31,1.31,0,0,0-1.68-.79,1.3,1.3,0,0,0-.79,1.66c.11.29,2.63,7.22,7.41,10.48a50.27,50.27,0,0,0,4.8,2.58c4.78,2.37,12,6,12.65,9.35a2.81,2.81,0,0,1-.93,2.55c-5.59,6.17-9.21,8.31-9.25,8.33a1.31,1.31,0,0,0-.48,1.78,1.35,1.35,0,0,0,1.14.65,1.28,1.28,0,0,0,.65-.18c.16-.09,4-2.32,9.89-8.84a5.42,5.42,0,0,0,1.55-4.78C2288,1308.55,2280.74,1304.93,2274.88,1302Z"/><path class="cls-58" d="M2234.19,1300.54c-2.54,1.48-3,5.53-1,9s5.64,5.14,8.18,3.66,3-5.53,1-9S2236.74,1299.06,2234.19,1300.54Z"/><path class="cls-58" d="M2283.33,1282.2c-2.75,1.07-3.78,5-2.31,8.73s4.89,5.92,7.63,4.84,3.78-5,2.31-8.72S2286.07,1281.13,2283.33,1282.2Z"/><path class="cls-58" d="M2237.13,1277.11a24.69,24.69,0,0,0-19.12,6.81,29.74,29.74,0,0,0-6,7.79,2.9,2.9,0,0,0,1.34,3.89,3,3,0,0,0,2.27.13,2.89,2.89,0,0,0,1.65-1.45,24.32,24.32,0,0,1,4.92-6.23,18.69,18.69,0,0,1,14.52-5.14,2.91,2.91,0,1,0,.46-5.8Z"/><path class="cls-58" d="M2288.92,1259.5c-8.93-3.28-15.49-.54-19.42,2.34a23.19,23.19,0,0,0-6.31,7,2.9,2.9,0,0,0,1.21,3.94,2.94,2.94,0,0,0,2.35.18,2.9,2.9,0,0,0,1.61-1.38c.25-.45,6.26-11.15,18.52-6.65a2.94,2.94,0,0,0,3.77-1.72A2.9,2.9,0,0,0,2288.92,1259.5Z"/><path class="cls-38" d="M1740.33,1235.39a55.31,55.31,0,0,1-4.45-4.07c-3.86-4.38-4.66-12.39-4.67-12.47a1.55,1.55,0,0,0-3.09.29c0,.36.88,9.07,5.42,14.21a54.59,54.59,0,0,0,4.75,4.37c4.79,4.12,12,10.36,11.78,14.45a3.36,3.36,0,0,1-1.83,2.66c-8.25,5.47-13.06,6.87-13.1,6.89a1.54,1.54,0,0,0-1.08,1.9,1.56,1.56,0,0,0,1.5,1.13,1.52,1.52,0,0,0,.42-.06c.21-.06,5.26-1.51,14-7.29a6.46,6.46,0,0,0,3.2-5C1753.53,1246.75,1746.21,1240.45,1740.33,1235.39Z"/><path class="cls-58" d="M1692.34,1228.11c-3.37,1-5.1,5.48-3.87,10.08s5,7.57,8.33,6.6,5.11-5.47,3.88-10.08S1695.71,1227.15,1692.34,1228.11Z"/><path class="cls-58" d="M1755.91,1215.06c-3.47.43-5.81,4.62-5.23,9.36s3.86,8.24,7.33,7.8,5.82-4.62,5.24-9.36S1759.39,1214.62,1755.91,1215.06Z"/><path class="cls-58" d="M1703.86,1199.08a29.4,29.4,0,0,0-24,2.26,35.36,35.36,0,0,0-9.26,7.19,3.43,3.43,0,0,0,.39,4.86,3.49,3.49,0,0,0,4.9-.37,29.19,29.19,0,0,1,7.51-5.73,22.27,22.27,0,0,1,18.22-1.67,3.46,3.46,0,1,0,2.25-6.54Z"/><path class="cls-58" d="M1769.07,1190.58c-9.3-6.38-17.65-5.15-23-3a27.89,27.89,0,0,0-9.35,6.25,3.43,3.43,0,0,0,.22,4.88,3.5,3.5,0,0,0,4.92-.22c.42-.46,10.51-11,23.27-2.24a3.51,3.51,0,0,0,4.85-.88A3.45,3.45,0,0,0,1769.07,1190.58Z"/><path class="cls-59" d="M2500.86,731.74c-56.14-22.43-112.08,38.56-112.08,38.56s-10-36.13-58.91-34.2c0,0,40.19,21,40.19,39.14,0,0-52.83-31.87-74.4,16.88-28.38,64.14,1.63,116.51,1.63,116.51s49.68,38.59,50.7,39.63,59.3,1.7,62,.5l77.08-34.14,8.85-12c12.75,17.59,53.6-57.28,53.6-57.28C2580,792.53,2557,754.18,2500.86,731.74Z"/><path class="cls-60" d="M2510,758.47c-48.33-33.92-117.07,22.79-129.58,33.79-7.28-5.27-32.24-21.48-56.26-15.11-15.2,4.05-26.88,16.32-34.71,36.49l5.63,2.15c7.09-18.27,17.39-29.33,30.62-32.85,24.93-6.65,52.71,15.31,53,15.52l2,1.63,1.91-1.76c.76-.7,75.69-69,124-34.9,1.3.83,31.47,20.83,14.37,68.06-4.66,12.86-8.61,23.49-11.87,32.3-10.46,28.16-13.62,36.66-11.71,41.56l5.62-2.17c-1.09-2.79,3.74-15.78,11.74-37.32,3.27-8.82,7.23-19.47,11.89-32.35C2545.48,781.64,2510.27,758.62,2510,758.47Z"/><path class="cls-60" d="M2495.21,786.67c-38.77-32.9-103.74,14.05-113.94,21.81-6.54-1.89-31.67-7.83-54.33,4.3-16,8.57-27.08,24.22-32.88,46.52l5.83,1.49c5.36-20.59,15.4-35,29.86-42.72,23.4-12.56,50.89-3.54,51.16-3.44l1.57.52,1.28-1c.7-.55,70-54.73,107.78-22.73.56.39,13.64,10,2.79,38.3-3.79,9.87-7.34,18.34-10.46,25.81-7,16.7-11.22,26.78-9.79,32.92l5.87-1.35c-1-4.27,3.4-14.76,9.48-29.27,3.14-7.51,6.71-16,10.53-26C2512.62,798.85,2495.68,787,2495.21,786.67Z"/><path class="cls-60" d="M2465.22,803.36c-29.14-17.89-71.11,18.32-78.39,24.94-5.54-.46-25.5-1.06-41.42,11.76-11.84,9.54-18.56,24.2-20,43.57l6,.44c1.3-17.64,7.26-30.87,17.74-39.33,16.21-13.1,38.1-10.4,38.32-10.37l1.43.2,1-1c.44-.42,44.71-42,71.8-25.31.09.06,8.77,7,9.4,17,.41,6.56-2.66,13.18-9.11,19.67l4.29,4.2c7.73-7.78,11.37-15.95,10.83-24.3C2476.34,812.1,2465.93,803.89,2465.22,803.36Z"/><path class="cls-32" d="M2369.7,841.76l8.35,35.93c.12.49.23,1,.32,1.59.26,1.55.42,3.1.53,4.63.07,1,.08,2,.09,3,0,.47,0,.93,0,1.4,0,1.3-.1,2.59-.22,3.88,0,.11,0,.22,0,.33-.14,1.39-.33,2.78-.58,4.14a54.34,54.34,0,0,1-37.71,41.88c3.35-13.94-3-28.13-15.62-33.07-14-5.48-30.19,2.46-36.28,17.74s.29,32.09,14.24,37.57a23.26,23.26,0,0,0,2.36.78l-59.76,59s-2.64-9.5,10,40.61,66.84,54.74,66.84,54.74,33.26,10.75,44.58-20.06l28.47-51.41c20.2,13.67,45.32,21.47,69,3.18,51.15-39.58,29.05-183.26,29.05-183.26S2439.14,873.82,2369.7,841.76Z"/><path class="cls-38" d="M2360.11,1004.47s-3.56,52.66,39.14,68.91l7.65-21.73S2370.78,1033.72,2360.11,1004.47Z"/><path class="cls-38" d="M2310,919.67a2.06,2.06,0,0,0-.37,2.91l12.07,15.49-12.36-4.85a2.08,2.08,0,1,0-1.53,3.86l26.5,10.4L2312.89,920A2.09,2.09,0,0,0,2310,919.67Z"/><path class="cls-38" d="M2472.79,897.9a2.09,2.09,0,0,0-.82-2.85,2.12,2.12,0,0,0-2.88.81c-.33.58-8,14.56.08,29.92,5.76,10.94,11.13,22.83,7.22,28-2.78,3.69-10.73,4.37-23,2a2.1,2.1,0,1,0-.81,4.13,70.24,70.24,0,0,0,13.14,1.47c6.87,0,11.51-1.68,14.06-5.06,5.56-7.41-.62-20.66-6.86-32.5A28.51,28.51,0,0,1,2472.79,897.9Z"/><path class="cls-58" d="M2481.29,907.41c-2.59.13-4.56,2.94-4.39,6.27s2.4,5.94,5,5.82,4.56-2.94,4.4-6.27S2483.88,907.29,2481.29,907.41Z"/><path class="cls-58" d="M2442.4,906c-2.59.12-4.56,2.93-4.39,6.27s2.4,5.94,5,5.81,4.56-2.93,4.4-6.27S2445,905.83,2442.4,906Z"/><path class="cls-58" d="M2456.11,886.69c-6.27-4.56-21.31-9.7-33.33,3.44a4.17,4.17,0,0,0,.28,5.93,4.27,4.27,0,0,0,6-.28c9.69-10.6,20.84-3.19,22.09-2.3a4.25,4.25,0,0,0,5.9-.92A4.18,4.18,0,0,0,2456.11,886.69Z"/><path class="cls-58" d="M2496.82,884.35c-13.85-5.17-21.12,3-21.42,3.32l3.2,2.74,3.15,2.81c.39-.42,4.11-4,12.1-1a4.24,4.24,0,0,0,5.45-2.45A4.2,4.2,0,0,0,2496.82,884.35Z"/><g class="cls-61"><path class="cls-62" d="M2409.65,917.28c-13.29-2.84-25.13-.18-26.47,6s8.36,13.41,21.64,16.25,25.13.18,26.46-6S2422.93,920.12,2409.65,917.28Z"/></g><path class="cls-53" d="M2458.81,975a16.47,16.47,0,0,0-14.62,6.32,21.61,21.61,0,0,0-2.7,22.67s0,0,0,0a15.86,15.86,0,0,0,27.34,3.21s0,0,0,0a21.59,21.59,0,0,0,2.71-22.68A16.42,16.42,0,0,0,2458.81,975Z"/><path class="cls-54" d="M2456.11,997.69a16.44,16.44,0,0,0-14.62,6.33s0,0,0,0a15.86,15.86,0,0,0,27.34,3.21s0,0,0,0A16.34,16.34,0,0,0,2456.11,997.69Z"/><path class="cls-15" d="M2458.81,975a16.47,16.47,0,0,0-14.62,6.32,15.85,15.85,0,0,0,27.35,3.2A16.42,16.42,0,0,0,2458.81,975Z"/><path class="cls-63" d="M2005.66,1611.89s6.18,22.34,20.75,21,23.39-6.13,20.74-11S2005.66,1611.89,2005.66,1611.89Z"/><path class="cls-38" d="M1654.05,1547.29l16.64,15.53,49.87-83.68C1697,1483.85,1654.05,1547.29,1654.05,1547.29Z"/><path class="cls-38" d="M1795.59,1471.36l4.3,15.45,28.8-45.68C1823.39,1442.45,1795.59,1471.36,1795.59,1471.36Z"/><path class="cls-29" d="M2478.08,1316.46c14.34-2.84,30.59-1,30.59-1l-19.12-74Z"/><g class="cls-61"><path class="cls-62" d="M1681.37,1259.47c-13.61,3.26-23.58,10.23-22.29,15.58s13.38,7,27,3.8,23.58-10.22,22.28-15.57S1695,1256.22,1681.37,1259.47Z"/></g><g class="cls-61"><path class="cls-62" d="M1766.17,1252.69c1.14,4.72,10.66,6.6,22.21,4.75a181,181,0,0,0-.17-20.26C1774.73,1240.45,1764.88,1247.37,1766.17,1252.69Z"/></g><path class="cls-44" d="M2166.39,1303.49c10.52,2.85,15,17.09,15,17.09l1.27-2.22C2180.73,1300,2166.39,1303.49,2166.39,1303.49Z"/><path class="cls-44" d="M2239.33,1327.58c-8.52,2.18-14.51,7.5-13.38,11.9s9,6.21,17.5,4,14.51-7.5,13.37-11.9S2247.85,1325.41,2239.33,1327.58Z"/><path class="cls-63" d="M2312.42,1296.79c-8.53,2.17-14.51,7.5-13.38,11.9s9,6.21,17.5,4l1.17-.34c-.31-5.1-1.21-11.66-1.91-16.26A30.49,30.49,0,0,0,2312.42,1296.79Z"/><path class="cls-38" d="M1707.88,1588.45l-3.39,6.33c36.54,31.63,109.2,50.2,109.2,50.2a74.44,74.44,0,0,0,2.13-26.58C1765.25,1621.35,1707.88,1588.45,1707.88,1588.45Z"/><path class="cls-64" d="M1823.47,1618c-1.92,6.32.42,26.63.42,26.63,40.58-3.74,117.5-46.56,117.5-46.56-2.24-8.23-6.06-12.66-6.06-12.66C1880.51,1621.77,1823.47,1618,1823.47,1618Z"/><polygon class="cls-38" points="2349.96 2057.12 2367.81 2064.29 2392.03 1971.91 2386.08 1970.64 2349.96 2057.12"/><path class="cls-38" d="M2345.61,1836.52l-2.34,33.3,11.15-2.53-.32-22.89S2347.42,1837.4,2345.61,1836.52Z"/><path class="cls-38" d="M1642.76,1335.45c33.47,17.4,81.91,12.34,81.91,12.34l-3.19-13.61C1686.43,1346.84,1642.76,1335.45,1642.76,1335.45Z"/></g></svg>